<svg id="SvgjsSvg1001" width="288" height="288" xmlns="http://www.w3.org/2000/svg" version="1.1" xmlns:xlink="http://www.w3.org/1999/xlink" xmlns:svgjs="http://svgjs.com/svgjs"><defs id="SvgjsDefs1002"></defs><g id="SvgjsG1008"><svg xmlns="http://www.w3.org/2000/svg" width="288" height="288" version="1.0" viewBox="0 0 512 512"><path d="M2330 5109 c-259 -24 -511 -88 -763 -193 -327 -136 -665 -377 -902-642 -384 -432 -602 -931 -655 -1499 -41 -446 55 -949 260 -1355 333 -659 950
-1158 1655 -1338 1094 -280 2232 187 2822 1157 260 427 390 922 369 1411 -36
876 -492 1646 -1245 2103 -456 277 -1014 406 -1541 356z" transform="matrix(.1 0 0 -.1 0 512)" fill="#f2785c" class="color000 svgShape"></path></svg></g></svg>