<svg id="SvgjsSvg1001" width="288" height="288" xmlns="http://www.w3.org/2000/svg" version="1.1" xmlns:xlink="http://www.w3.org/1999/xlink" xmlns:svgjs="http://svgjs.com/svgjs"><defs id="SvgjsDefs1002"></defs><g id="SvgjsG1008"><svg xmlns="http://www.w3.org/2000/svg" width="288" height="288" version="1.0" viewBox="0 0 512 512"><g transform="matrix(.1 0 0 -.1 0 512)" fill="#ffffff" class="color000 svgShape"><path d="M1210 5113 c-309 -33 -592 -171 -815 -397 -199 -201 -313 -414 -372-696 -17 -79 -18 -176 -18 -1460 0 -1284 1 -1381 18 -1460 60 -283 174 -496
372 -696 201 -203 420 -321 705 -381 79 -17 176 -18 1460 -18 1536 0 1434 -4
1652 71 197 68 346 162 504 319 202 199 321 420 381 705 17 79 18 176 18 1460
0 1525 4 1424 -66 1636 -66 203 -166 361 -329 524 -198 198 -396 307 -675 373
-89 21 -103 21 -1445 23 -745 0 -1371 -1 -1390 -3z m2335 -921 c322 -90 562
-332 647 -652 l23 -85 0 -895 0 -895 -23 -85 c-85 -323 -329 -567 -652 -652
l-85 -23 -895 0 c-821 0 -901 1 -963 18 -333 85 -582 330 -669 657 l-23 85 0
895 0 895 23 85 c91 344 367 602 710 665 63 11 237 13 952 12 874 -2 875 -2
955 -25z" fill="#ffffff" class="color000 svgShape"></path><path d="M1652 3900 c-109 -29 -187 -74 -272 -160 -87 -86 -131 -163 -160
-276 -19 -74 -20 -113 -20 -904 0 -791 1 -830 20 -904 29 -113 73 -190 160
-276 86 -87 163 -131 276 -160 74 -19 113 -20 904 -20 791 0 830 1 904 20 113
29 190 73 276 160 87 86 131 163 160 276 19 74 20 113 20 904 0 791 -1 830
-20 904 -29 113 -73 190 -160 276 -86 87 -163 131 -276 160 -74 19 -112 20
-908 19 -785 0 -835 -1 -904 -19z m1838 -350 c45 -23 80 -80 80 -130 0 -50
-35 -107 -80 -130 -21 -11 -53 -20 -70 -20 -50 0 -107 35 -130 80 -38 74 -16
153 56 196 48 29 92 30 144 4z m-783 -256 c150 -31 275 -99 382 -207 98 -100
162 -209 198 -341 23 -84 23 -288 0 -372 -77 -280 -300 -490 -579 -548 -519
-107 -989 362 -882 882 83 404 481 669 881 586z" fill="#ffffff" class="color000 svgShape"></path><path d="M2455 2996 c-83 -20 -146 -56 -211 -120 -177 -178 -177 -455 0 -631
179 -178 455 -178 631 -1 178 179 178 454 1 632 -114 114 -267 158 -421 120z" fill="#ffffff" class="color000 svgShape"></path></g></svg></g></svg>