<svg id="SvgjsSvg1001" width="288" height="288" xmlns="http://www.w3.org/2000/svg" version="1.1" xmlns:xlink="http://www.w3.org/1999/xlink" xmlns:svgjs="http://svgjs.com/svgjs"><defs id="SvgjsDefs1002"></defs><g id="SvgjsG1008"><svg xmlns="http://www.w3.org/2000/svg" width="288" height="288" version="1.0" viewBox="0 0 512 512"><g transform="matrix(.1 0 0 -.1 0 512)" fill="#ffffff" class="color000 svgShape"><path d="M280 4433c-134-24-246-46-249-48-2-2 76-230 173-506 98-276 174-505 169-509-4-4-88-21-187-38-98-17-180-33-182-35-4-4 31-206 37-211 17-17 193-119 280-162 256-129 528-203 819-222 191-13 383 1 654 48 131 22 240 39 241 38 1-2-39-201-90-443-74-353-89-441-78-443 8-2 150 20 315 49l300 53 618 542 618 542 379 67c438 77 517 94 621 136 162 64 307 182 368 299 24 46 29 67 29 130 0 65-4 82-30 129-37 67-91 114-180 157-121 58-180 69-365 69l-165-1-1394-247c-767-136-1399-246-1405-244-6 3-239 205-518 451-279 245-513 445-520 445-7-1-123-21-258-46zM0 855l0-215 2560 0 2560 0 0 215 0 215-2560 0-2560 0 0-215z" fill="#ffffff" class="color000 svgShape"></path></g></svg></g></svg>