<svg id="SvgjsSvg1001" width="288" height="288" xmlns="http://www.w3.org/2000/svg" version="1.1" xmlns:xlink="http://www.w3.org/1999/xlink" xmlns:svgjs="http://svgjs.com/svgjs"><defs id="SvgjsDefs1002"></defs><g id="SvgjsG1008"><svg xmlns="http://www.w3.org/2000/svg" width="288" height="288" version="1.0" viewBox="0 0 512 512"><g transform="matrix(.1 0 0 -.1 0 512)" fill="#ffffff" class="color000 svgShape"><path d="M1713 5082c-40-20-73-41-73-47 0-5 104-104 230-219 127-115 230-213 230-217 0-4-88-69-196-145l-196-137-69 22-68 22-60-31c-34-17-61-34-61-38 1-9 101-89 122-97 13-5 11-14-14-61-42-76-35-87 51-82 49 2 67 0 64-8-6-15 37-154 47-154 4 0 31 21 59 46 47 43 51 49 51 92 0 85-2 83 217 217 113 69 207 124 209 122 2-2 49-133 103-290 104-300 107-307 121-307 17 0 131 104 135 124 3 12-19 162-49 334l-53 313 51 38c28 20 117 83 197 139 158 110 220 168 238 225 24 70-26 122-107 112-64-7-108-30-317-160-104-64-194-119-200-122-7-2-135 75-285 171-150 97-280 176-289 175-9 0-49-17-88-37zM1315 4038c-618-481-1003-1135-1076-1827-18-176-6-474 25-630 87-425 302-802 611-1070 299-260 659-422 1085-488 89-14 167-17 345-16 127 1 255 6 285 11 41 7 14 8-105 4-448-13-887 94-1223 300-170 104-350 257-465 396-197 238-336 539-392 847-26 144-31 425-10 580 70 529 333 1033 739 1415 138 130 203 184 326 270 58 40 106 74 108 76 6 4-143 203-153 203-5-1-50-32-100-71zM2837 3799c-100-24-154-79-205-212-65-166-121-368-161-580-29-149-28-182 7-215l27-27 508 1 507 1 24 22c36 34 37 63 10 206-54 278-134 550-202 684-23 45-94 98-155 116-57 17-295 19-360 4z" fill="#ffffff" class="color000 svgShape"></path><path d="M2245 3647c-240-112-374-206-560-392-186-187-292-338-394-563-42-94-50-139-29-160 18-18 39-15 156 23 139 45 360 98 539 129 152 27 183 38 224 83 40 43 46 60 68 189 35 203 93 443 136 564 63 177 30 207-140 127zM3614 3678c-12-19-6-70 16-133 50-142 92-315 140-573 43-231 57-244 315-291 198-37 367-78 517-126 128-41 143-42 163-11 15 22 14 28-8 87-120 319-381 643-682 848-222 150-434 242-461 199zM2760 2559c-112-4-219-10-237-14-41-7-102-59-119-102-23-55-37-475-24-760 12-278 17-297 86-346 37-26 48-28 209-38 179-12 721-5 808 10 101 17 142 72 154 209 11 135 8 782-5 864-21 135-69 164-287 173-314 12-386 12-585 4zM1910 2465c-161-32-305-70-445-117-302-100-340-151-333-446 3-153 4-158 33-211 17-30 46-67 65-82 41-33 200-95 372-145 160-46 465-106 499-99 14 3 37 17 49 30l23 25 0 503c0 364-3 509-12 525-26 49-75 52-251 17zM3893 2478c-12-6-29-25-37-43-14-29-14-62-5-272 7-170 7-309 0-478-10-222-10-240 7-269 33-57 58-61 196-36 345 64 670 168 749 239 76 69 82 91 82 306l0 190-31 55c-17 30-49 67-70 82-84 59-380 153-657 208-157 32-199 35-234 18zM1257 1323c-17-16-3-76 38-167 179-398 494-723 889-917 158-78 190-88 216-64 11 10 20 24 20 31 0 6-18 69-40 139-46 149-100 378-130 555-32 186-76 236-230 260-197 31-414 82-582 136-102 32-167 42-181 27zM4610 1303c-162-53-330-94-569-138-195-35-236-71-261-225-30-191-81-412-130-567-48-151-51-172-29-194 10-10 25-19 32-19 26 1 216 88 309 143 311 183 573 464 731 782 31 61 62 132 71 158 31 92-10 108-154 60zM2506 1085c-65-35-69-68-31-256 61-309 157-607 219-685 50-63 105-86 219-93 149-10 283 1 333 27 51 26 100 81 126 141 66 154 141 421 187 668 20 102 20 116 7 148-26 60-53 66-267 53-170-9-593-5-714 8-35 3-59 0-79-11zM2678 33c7-3 16-2 19 1 4 3-2 6-13 5-11 0-14-3-6-6z" fill="#ffffff" class="color000 svgShape"></path></g></svg></g></svg>